HIERARCHY
ROOT Hips
{
	OFFSET -3.958830 18.904000 13.208200
	CHANNELS 6 Xposition Yposition Zposition Zrotation Yrotation Xrotation 
	JOINT LHipJoint
	{
		OFFSET 0.000000 0.000000 0.000000
		CHANNELS 3 Zrotation Yrotation Xrotation
		JOINT LeftUpLeg
		{
			OFFSET 1.800000 -1.400000 0.085000
			CHANNELS 3 Zrotation Yrotation Xrotation
			JOINT LeftLeg
			{
				OFFSET 2.215000 -6.000000 0.000000
				CHANNELS 3 Zrotation Yrotation Xrotation
				JOINT LeftFoot
				{
					OFFSET 2.500000 -6.900000 0.000000
					CHANNELS 3 Zrotation Yrotation Xrotation
					JOINT LeftToeBase
					{
						OFFSET 0.200000 -0.500000 1.950000
						CHANNELS 3 Zrotation Yrotation Xrotation
						End Site
						{
							OFFSET 0.000000 0.000000 0.000000
						}
					}
				}
			}
		}
	}
	JOINT RHipJoint
	{
		OFFSET 0.000000 0.000000 0.000000
		CHANNELS 3 Zrotation Yrotation Xrotation
		JOINT RightUpLeg
		{
			OFFSET -1.800000 -1.400000 0.085000
			CHANNELS 3 Zrotation Yrotation Xrotation
			JOINT RightLeg
			{
				OFFSET -2.215000 -6.000000 0.000000
				CHANNELS 3 Zrotation Yrotation Xrotation
				JOINT RightFoot
				{
					OFFSET -2.500000 -6.900000 0.000000
					CHANNELS 3 Zrotation Yrotation Xrotation
					JOINT RightToeBase
					{
						OFFSET -0.200000 -0.500000 1.950000
						CHANNELS 3 Zrotation Yrotation Xrotation
						End Site
						{
							OFFSET 0.000000 0.000000 0.000000
						}
					}
				}
			}
		}
	}
	JOINT LowerBack
	{
		OFFSET 0.000000 0.000000 0.000000
		CHANNELS 3 Zrotation Yrotation Xrotation
		JOINT Spine
		{
			OFFSET -0.087000 1.940000 -0.288900
			CHANNELS 3 Zrotation Yrotation Xrotation
			JOINT Spine1
			{
				OFFSET 0.000000 1.950000 0.060000
				CHANNELS 3 Zrotation Yrotation Xrotation
				JOINT Neck
				{
					OFFSET 0.000000 0.000000 0.000000
					CHANNELS 3 Zrotation Yrotation Xrotation
					JOINT Neck1
					{
						OFFSET 0.000000 1.600000 0.340000
						CHANNELS 3 Zrotation Yrotation Xrotation
						JOINT Head
						{
							OFFSET 0.000000 1.667000 -0.240000
							CHANNELS 3 Zrotation Yrotation Xrotation
							End Site
							{
								OFFSET 0.000000 0.000000 0.000000
							}
						}
					}
				}
				JOINT LeftShoulder
				{
					OFFSET 0.000000 0.000000 0.000000
					CHANNELS 3 Zrotation Yrotation Xrotation
					JOINT LeftArm
					{
						OFFSET 2.700000 1.550000 -0.730000
						CHANNELS 3 Zrotation Yrotation Xrotation
						JOINT LeftForeArm
						{
							OFFSET 5.450000 0.000000 0.000000
							CHANNELS 3 Zrotation Yrotation Xrotation
							JOINT LeftHand
							{
								OFFSET 3.450000 0.000000 0.000000
								CHANNELS 3 Zrotation Yrotation Xrotation
								JOINT LeftHandIndex1
								{
									OFFSET 0.750000 0.000000 0.000000
									CHANNELS 3 Zrotation Yrotation Xrotation
									End Site
									{
										OFFSET 0.000000 0.000000 0.000000
									}
								}
							}
						}
					}
				}
				JOINT RightShoulder
				{
					OFFSET 0.000000 0.000000 0.000000
					CHANNELS 3 Zrotation Yrotation Xrotation
					JOINT RightArm
					{
						OFFSET -2.700000 1.550000 -0.730000
						CHANNELS 3 Zrotation Yrotation Xrotation
						JOINT RightForeArm
						{
							OFFSET -5.450000 0.000000 0.000000
							CHANNELS 3 Zrotation Yrotation Xrotation
							JOINT RightHand
							{
								OFFSET -3.450000 0.000000 0.000000
								CHANNELS 3 Zrotation Yrotation Xrotation
								JOINT RightHandIndex1
								{
									OFFSET -0.750000 0.000000 0.000000
									CHANNELS 3 Zrotation Yrotation Xrotation
									End Site
									{
										OFFSET 0.000000 0.000000 0.000000
									}
								}
							}
						}
					}
				}
			}
		}
	}
}
MOTION
Frames: 4
Frame Time: 0.016667
4.012760 16.566880 -2.608670 0.772512 22.959929 1.952889 -15.968738 14.787226 3.147494 8.529364 -6.624325 16.610233 -3.845112 8.215321 13.088286 0.074427 7.915744 2.387050 -0.867400 -1.212860 -0.966440 17.762065 -7.789886 3.346137 15.903562 2.793978 -38.088487 8.907683 -3.175794 6.813083 0.512605 -1.402502 3.993254 -0.517770 1.576700 0.410160 -1.851640 -8.959115 -7.529033 -2.219423 -19.391450 9.767814 -9.525008 -17.735452 15.316869 -0.378441 -5.643769 -16.660410 -17.688752 9.963629 29.798003 1.825860 1.421050 8.813180 13.895683 -11.469263 5.516159 -8.000521 -25.681893 0.183452 32.390341 -45.373966 -14.115979 -4.606607 2.842788 0.415320 0.778880 -0.529760 0.231110 -12.996546 6.100191 10.065759 35.168859 -21.946286 -13.440585 41.302107 8.140104 -2.670810 1.422396 -0.687927 -0.743770 0.681370 0.941630 0.210590 
4.040560 16.551620 -2.322620 3.162829 18.288814 3.707887 -16.150101 14.833440 3.214647 5.558990 -5.442982 16.372045 -4.718837 8.507306 15.588030 0.032852 7.970877 2.309464 -0.843660 -1.227500 -0.892200 17.614764 -7.640860 3.399997 14.257093 3.044783 -33.878630 10.622488 -2.504041 0.885197 0.416358 -1.303074 4.026846 -0.541980 1.463110 0.342550 -1.327128 -9.269185 -7.570604 -5.108915 -18.336255 6.117275 -6.326497 -16.823084 14.305338 0.222411 -7.571868 -18.077093 -23.520280 12.418993 30.592241 3.785750 1.444320 4.698750 14.609341 -10.411055 6.421577 -9.394421 -21.789002 1.524706 17.701130 -45.809706 -7.827988 -4.250863 2.856045 0.638420 0.616010 -0.417060 0.189170 -14.116756 8.319793 11.509209 31.901629 -21.468355 -12.724790 44.308968 8.851499 -2.257645 1.412140 -0.546215 -0.802270 0.759840 0.953930 0.144560 
4.038780 16.553120 -2.060130 5.063124 11.979265 3.609389 -16.225280 14.708025 3.283777 2.962983 -4.770506 15.814949 -7.474923 9.573744 20.684330 0.242343 8.332760 2.150625 -0.760570 -1.075380 -0.873670 17.563943 -7.646136 3.439639 14.066620 3.263681 -29.279977 10.508802 -2.176561 -1.988729 0.309718 -1.404058 3.997415 -0.509810 1.384840 0.319130 -1.098645 -9.102412 -7.661507 -8.682307 -15.941216 5.223780 -2.958766 -14.818761 12.982018 -0.377774 -8.424537 -18.355840 -25.887281 12.955968 29.957055 7.040680 0.165180 1.532260 14.598351 -9.720707 6.674205 -9.578713 -19.533667 2.791898 3.179335 -44.530301 -1.566708 -4.016341 2.993975 0.640860 0.521090 -0.333720 0.215850 -12.232179 9.735553 12.205252 30.784769 -21.688295 -12.443528 43.039503 14.417979 -0.063665 1.496699 -0.669130 -0.718990 0.759320 0.881830 0.192900 
4.053670 16.590560 -1.894800 4.839799 5.479310 0.694563 -16.128003 14.442521 3.454590 2.052279 -5.749934 14.890149 -12.016026 11.806837 28.177765 0.568190 9.190565 1.768435 -0.598420 -0.891240 -0.681260 17.625694 -7.869701 3.510198 14.856065 3.293224 -24.364628 10.515345 -2.596571 -1.125483 0.079252 -1.451438 3.934868 -0.515250 1.077440 0.279160 -1.297071 -8.358800 -8.116399 -9.918642 -12.911425 9.925998 -0.522073 -12.564347 10.956207 0.501541 -8.930874 -19.906402 -30.704630 14.523856 33.457111 8.842950 0.600370 -4.858540 11.253731 -11.384269 7.599210 -9.485296 -15.114347 1.084335 -2.039766 -45.073931 0.400749 -3.684918 2.978065 0.828200 0.253050 -0.089660 0.199390 -9.677297 13.273830 13.567076 32.699159 -21.292670 -13.608400 41.561329 17.654813 1.029935 1.711445 -0.646095 -0.612970 0.701370 0.733600 0.147030 
